<svg width="24" height="24" viewBox="0 0 24 24" fill="none" xmlns="http://www.w3.org/2000/svg">
<path d="M19.5738 22.5C19.7639 22.5 19.9181 22.3458 19.9181 22.1557V20.4344C19.9181 20.0547 19.6093 19.7459 19.2296 19.7459H18.3689V2.18852C18.3689 1.8088 18.0601 1.5 17.6804 1.5H6.31974C5.94002 1.5 5.63121 1.8088 5.63121 2.18852V19.7459H4.77056C4.39083 19.7459 4.08203 20.0547 4.08203 20.4344V22.1557C4.08203 22.3458 4.23626 22.5 4.42629 22.5C4.61633 22.5 4.77056 22.3458 4.77056 22.1557V20.4344H19.2296V22.1557C19.2296 22.3458 19.3838 22.5 19.5738 22.5ZM17.6804 19.7459H14.582V2.18852H17.6804V19.7459ZM6.31974 5.28689H9.76236V6.66394C8.62337 6.66394 7.69679 7.59052 7.69679 8.72951V9.41803C7.69679 9.60806 7.85102 9.76229 8.04105 9.76229H12.1722C12.3622 9.76229 12.5165 9.60806 12.5165 9.41803V8.72951C12.5165 7.59052 11.5899 6.66394 10.4509 6.66394V5.28689C10.4509 4.90717 10.1421 4.59836 9.76237 4.59836H6.31974V2.18852H13.8935V19.7459H6.31974V5.28689ZM10.4509 7.35246C11.2102 7.35246 11.8279 7.97024 11.8279 8.72951V9.07377H8.3853V8.72951C8.3853 7.97024 9.00308 7.35246 9.76235 7.35246H10.4509Z" fill="#1BA5B5"/>
<path d="M15.7866 11.9992C15.9767 11.9992 16.1309 11.8449 16.1309 11.6549V10.2779C16.1309 10.0878 15.9767 9.93359 15.7866 9.93359C15.5966 9.93359 15.4424 10.0878 15.4424 10.2779V11.6549C15.4424 11.8449 15.5966 11.9992 15.7866 11.9992Z" fill="#1BA5B5"/>
<path d="M8.04153 10.4512C7.8515 10.4512 7.69727 10.6054 7.69727 10.7954V12.5167C7.69727 12.7068 7.8515 12.861 8.04153 12.861C8.23156 12.861 8.38579 12.7068 8.38579 12.5167V10.7954C8.38579 10.6054 8.23156 10.4512 8.04153 10.4512Z" fill="#1BA5B5"/>
<path d="M12.1724 10.4512C11.9824 10.4512 11.8281 10.6054 11.8281 10.7954V12.5167C11.8281 12.7068 11.9824 12.861 12.1724 12.861C12.3624 12.861 12.5166 12.7068 12.5166 12.5167V10.7954C12.5167 10.6054 12.3624 10.4512 12.1724 10.4512Z" fill="#1BA5B5"/>
<path d="M8.04153 13.8926C7.8515 13.8926 7.69727 14.0468 7.69727 14.2368V15.9581C7.69727 16.1482 7.8515 16.3024 8.04153 16.3024C8.23156 16.3024 8.38579 16.1482 8.38579 15.9581V14.2368C8.38579 14.0468 8.23156 13.8926 8.04153 13.8926Z" fill="#1BA5B5"/>
<path d="M12.1724 13.8926C11.9824 13.8926 11.8281 14.0468 11.8281 14.2368V15.9581C11.8281 16.1482 11.9824 16.3024 12.1724 16.3024C12.3624 16.3024 12.5166 16.1482 12.5166 15.9581V14.2368C12.5167 14.0468 12.3624 13.8926 12.1724 13.8926Z" fill="#1BA5B5"/>
<path d="M10.107 11.8281C9.91693 11.8281 9.7627 11.9824 9.7627 12.1724V13.8937C9.7627 14.0837 9.91693 14.238 10.107 14.238C10.297 14.238 10.4512 14.0837 10.4512 13.8937V12.1724C10.4512 11.9823 10.297 11.8281 10.107 11.8281Z" fill="#1BA5B5"/>
<path d="M10.107 15.2695C9.91693 15.2695 9.7627 15.4238 9.7627 15.6138V17.3351C9.7627 17.5251 9.91693 17.6794 10.107 17.6794C10.297 17.6794 10.4512 17.5251 10.4512 17.3351V15.6138C10.4512 15.4238 10.297 15.2695 10.107 15.2695Z" fill="#1BA5B5"/>
</svg>
