<svg width="24" height="24" viewBox="0 0 24 24" fill="none" xmlns="http://www.w3.org/2000/svg">
<g clip-path="url(#clip0_166_703)">
<path d="M15.9996 1.59961H2.39961C2.18744 1.59961 1.98395 1.68389 1.83392 1.83392C1.68389 1.98395 1.59961 2.18744 1.59961 2.39961V19.9996C1.59961 20.2118 1.68389 20.4153 1.83392 20.5653C1.98395 20.7153 2.18744 20.7996 2.39961 20.7996H15.9996C16.2118 20.7996 16.4153 20.7153 16.5653 20.5653C16.7153 20.4153 16.7996 20.2118 16.7996 19.9996V2.39961C16.7996 2.18744 16.7153 1.98395 16.5653 1.83392C16.4153 1.68389 16.2118 1.59961 15.9996 1.59961ZM15.9996 2.39961V10.7996H14.502C14.5148 10.7636 14.5296 10.7284 14.5392 10.6908L14.73 9.92601C14.8697 9.86267 14.9882 9.76053 15.0714 9.63175C15.1547 9.50296 15.1992 9.35296 15.1996 9.19961V5.43961C15.1986 5.05745 15.0603 4.68836 14.81 4.39961C14.8625 4.39893 14.9144 4.3879 14.9627 4.36717C15.011 4.34644 15.0547 4.3164 15.0913 4.27877C15.128 4.24115 15.1569 4.19667 15.1764 4.14788C15.1958 4.09909 15.2055 4.04694 15.2048 3.99441C15.2041 3.94188 15.1931 3.89 15.1724 3.84173C15.1516 3.79346 15.1216 3.74975 15.084 3.71309C15.0463 3.67643 15.0019 3.64754 14.9531 3.62807C14.9043 3.6086 14.8521 3.59893 14.7996 3.59961H9.99961C9.89352 3.59823 9.79123 3.63905 9.71524 3.71309C9.63925 3.78713 9.59579 3.88832 9.59441 3.99441C9.59303 4.1005 9.63385 4.20279 9.70789 4.27877C9.78193 4.35476 9.88312 4.39823 9.98921 4.39961C9.73887 4.68836 9.60061 5.05745 9.59961 5.43961V9.19961C9.60003 9.35296 9.64452 9.50296 9.72777 9.63175C9.81103 9.76053 9.92955 9.86267 10.0692 9.92601L10.26 10.6912C10.2696 10.7288 10.2844 10.7636 10.2972 10.7996H8.10201C8.11481 10.7636 8.12961 10.7284 8.13921 10.6908L8.33001 9.92601C8.46967 9.86267 8.58819 9.76053 8.67145 9.63175C8.7547 9.50296 8.79919 9.35296 8.79961 9.19961V5.43961C8.79861 5.05745 8.66035 4.68836 8.41001 4.39961C8.46254 4.39893 8.51442 4.3879 8.56269 4.36717C8.61096 4.34644 8.65467 4.3164 8.69133 4.27877C8.72799 4.24115 8.75688 4.19667 8.77635 4.14788C8.79582 4.09909 8.80549 4.04694 8.80481 3.99441C8.80413 3.94188 8.7931 3.89 8.77237 3.84173C8.75164 3.79346 8.7216 3.74975 8.68398 3.71309C8.64635 3.67643 8.60187 3.64754 8.55308 3.62807C8.50429 3.6086 8.45214 3.59893 8.39961 3.59961H3.59961C3.49352 3.59823 3.39123 3.63905 3.31524 3.71309C3.23925 3.78713 3.19579 3.88832 3.19441 3.99441C3.19303 4.1005 3.23385 4.20279 3.30789 4.27877C3.38193 4.35476 3.48312 4.39823 3.58921 4.39961C3.33887 4.68836 3.20061 5.05745 3.19961 5.43961V9.19961C3.20003 9.35296 3.24452 9.50296 3.32777 9.63175C3.41103 9.76053 3.52955 9.86267 3.66921 9.92601L3.86001 10.6912C3.86961 10.7288 3.88441 10.7636 3.89721 10.7996H2.39961V2.39961H15.9996ZM13.4796 4.39961L14.0452 4.77641C14.1543 4.84927 14.2437 4.94791 14.3055 5.0636C14.3673 5.17929 14.3997 5.30844 14.3996 5.43961V9.19961H10.3996V5.43961C10.3994 5.30806 10.4318 5.17851 10.4939 5.06252C10.5559 4.94652 10.6457 4.84768 10.7552 4.77481L11.3196 4.39961H13.4796ZM11.036 10.4968L10.9116 9.99961H13.8876L13.7632 10.4964C13.7416 10.583 13.6916 10.66 13.6212 10.7149C13.5509 10.7699 13.4641 10.7997 13.3748 10.7996H11.4244C11.3352 10.7997 11.2485 10.7699 11.1781 10.7151C11.1077 10.6602 11.0577 10.5834 11.036 10.4968ZM7.07961 4.39961L7.64521 4.77641C7.75428 4.84927 7.8437 4.94791 7.90552 5.0636C7.96734 5.17929 7.99966 5.30844 7.99961 5.43961V9.19961H3.99961V5.43961C3.99943 5.30806 4.03181 5.17851 4.09385 5.06252C4.1559 4.94652 4.24569 4.84768 4.35521 4.77481L4.91961 4.39961H7.07961ZM4.63601 10.4968L4.51161 9.99961H7.48761L7.36321 10.4964C7.3416 10.583 7.29162 10.66 7.22124 10.7149C7.15085 10.7699 7.0641 10.7997 6.97481 10.7996H5.02441C4.93517 10.7997 4.84846 10.7699 4.77808 10.7151C4.7077 10.6602 4.65769 10.5834 4.63601 10.4968ZM6.02721 15.0968L6.09121 13.85C6.10508 13.6733 6.05715 13.4973 5.95561 13.352L5.98601 13.2H6.81721L6.84881 13.3576C6.75017 13.5013 6.70166 13.6735 6.71081 13.8476L6.77241 15.0996C6.79664 15.5451 6.98569 15.9657 7.30281 16.2796C7.39704 16.3718 7.47184 16.482 7.52282 16.6036C7.57379 16.7252 7.5999 16.8558 7.59961 16.9876V19.5996C7.59961 19.7057 7.55747 19.8074 7.48245 19.8825C7.40744 19.9575 7.3057 19.9996 7.19961 19.9996H5.59961C5.49352 19.9996 5.39178 19.9575 5.31677 19.8825C5.24175 19.8074 5.19961 19.7057 5.19961 19.5996V16.9876C5.1994 16.856 5.22552 16.7257 5.27642 16.6043C5.32732 16.4829 5.40198 16.3729 5.49601 16.2808C5.81422 15.9658 6.00361 15.5439 6.02721 15.0968ZM11.6272 15.0968L11.6912 13.85C11.7051 13.6733 11.6571 13.4973 11.5556 13.352L11.586 13.2H12.4172L12.4488 13.3576C12.3502 13.5013 12.3017 13.6735 12.3108 13.8476L12.3724 15.0996C12.3966 15.5451 12.5857 15.9657 12.9028 16.2796C12.997 16.3718 13.0718 16.482 13.1228 16.6036C13.1738 16.7252 13.1999 16.8558 13.1996 16.9876V19.5996C13.1996 19.7057 13.1575 19.8074 13.0825 19.8825C13.0074 19.9575 12.9057 19.9996 12.7996 19.9996H11.1996C11.0935 19.9996 10.9918 19.9575 10.9168 19.8825C10.8418 19.8074 10.7996 19.7057 10.7996 19.5996V16.9876C10.7994 16.856 10.8255 16.7257 10.8764 16.6043C10.9273 16.4829 11.002 16.3729 11.096 16.2808C11.4142 15.9658 11.6036 15.5439 11.6272 15.0968ZM13.926 19.9996C13.9734 19.8715 13.9983 19.7362 13.9996 19.5996V16.9876C14.0001 16.7497 13.953 16.5142 13.861 16.2948C13.769 16.0755 13.634 15.8768 13.464 15.7104C13.289 15.5361 13.1847 15.3031 13.1712 15.0564L13.1044 13.8164C13.1682 13.7433 13.2144 13.6564 13.2392 13.5625C13.264 13.4687 13.2669 13.3704 13.2476 13.2752L13.1676 12.8812C13.1476 12.75 13.0822 12.6299 12.9828 12.5419C12.8834 12.4539 12.7563 12.4035 12.6236 12.3996H11.3796C11.248 12.4028 11.1216 12.4519 11.0222 12.5384C10.9229 12.6248 10.8569 12.7433 10.8356 12.8732L10.7588 13.2568C10.7479 13.3036 10.7428 13.3516 10.7436 13.3996C10.743 13.549 10.7957 13.6937 10.8924 13.8076L10.8288 15.052C10.816 15.3003 10.7114 15.535 10.5352 15.7104C10.3652 15.8767 10.2302 16.0755 10.1382 16.2948C10.0462 16.5142 9.99908 16.7497 9.99961 16.9876V19.5996C10.0009 19.7362 10.026 19.8716 10.0736 19.9996H8.32561C8.37326 19.8716 8.3983 19.7362 8.39961 19.5996V16.9876C8.40011 16.7497 8.35298 16.5142 8.26099 16.2948C8.16901 16.0755 8.03402 15.8768 7.86401 15.7104C7.68897 15.5361 7.58467 15.3031 7.57121 15.0564L7.50441 13.8164C7.56824 13.7433 7.61437 13.6564 7.6392 13.5625C7.66404 13.4687 7.66691 13.3704 7.64761 13.2752L7.56761 12.8812C7.54763 12.75 7.48225 12.6299 7.38284 12.5419C7.28344 12.4539 7.15631 12.4035 7.02361 12.3996H5.77961C5.64796 12.4028 5.52157 12.4519 5.42224 12.5384C5.32292 12.6248 5.25691 12.7433 5.23561 12.8732L5.15881 13.2568C5.14787 13.3036 5.14276 13.3516 5.14361 13.3996C5.14297 13.549 5.19574 13.6937 5.29241 13.8076L5.22881 15.052C5.21601 15.3003 5.11137 15.535 4.93521 15.7104C4.76518 15.8767 4.63018 16.0755 4.53819 16.2948C4.4462 16.5142 4.39908 16.7497 4.39961 16.9876V19.5996C4.40097 19.7362 4.426 19.8716 4.47361 19.9996H2.39961V11.5996H15.9996V19.9996H13.926Z" fill="#1BA5B5"/>
<path d="M22.8 5.6H20.8V1.6C20.8 1.17565 20.6314 0.768687 20.3314 0.468629C20.0313 0.168571 19.6243 0 19.2 0L18.4 0C18.2465 0.000412245 18.0963 0.0449819 17.9675 0.128391C17.8386 0.211799 17.7364 0.330525 17.6732 0.4704C17.3174 0.168638 16.8665 0.00206445 16.4 0L2 0C1.46976 0.000635143 0.961423 0.211553 0.586488 0.586488C0.211553 0.961423 0.000635143 1.46976 0 2L0 20.4C0.00058181 20.8609 0.160036 21.3075 0.451487 21.6645C0.742938 22.0215 1.14857 22.2672 1.6 22.36V22.8C1.6 23.1183 1.72643 23.4235 1.95147 23.6485C2.17652 23.8736 2.48174 24 2.8 24H5.6C5.91826 24 6.22348 23.8736 6.44853 23.6485C6.67357 23.4235 6.8 23.1183 6.8 22.8V22.4H11.6V22.8C11.6 23.1183 11.7264 23.4235 11.9515 23.6485C12.1765 23.8736 12.4817 24 12.8 24H15.6C15.9183 24 16.2235 23.8736 16.4485 23.6485C16.6736 23.4235 16.8 23.1183 16.8 22.8V22.36C17.1222 22.2913 17.4223 22.1435 17.6732 21.93C17.7365 22.0698 17.8387 22.1884 17.9676 22.2718C18.0964 22.3551 18.2465 22.3996 18.4 22.4H19.2C19.6243 22.4 20.0313 22.2314 20.3314 21.9314C20.6314 21.6313 20.8 21.2243 20.8 20.8V8.4H21.6V13.2C21.6 13.5183 21.7264 13.8235 21.9515 14.0485C22.1765 14.2736 22.4817 14.4 22.8 14.4C23.1183 14.4 23.4235 14.2736 23.6485 14.0485C23.8736 13.8235 24 13.5183 24 13.2V6.8C24 6.48174 23.8736 6.17652 23.6485 5.95147C23.4235 5.72643 23.1183 5.6 22.8 5.6ZM6 22.8C6 22.9061 5.95786 23.0078 5.88284 23.0828C5.80783 23.1579 5.70609 23.2 5.6 23.2H2.8C2.69391 23.2 2.59217 23.1579 2.51716 23.0828C2.44214 23.0078 2.4 22.9061 2.4 22.8V22.4H6V22.8ZM15.6 23.2H12.8C12.6939 23.2 12.5922 23.1579 12.5172 23.0828C12.4421 23.0078 12.4 22.9061 12.4 22.8V22.4H16V22.8C16 22.9061 15.9579 23.0078 15.8828 23.0828C15.8078 23.1579 15.7061 23.2 15.6 23.2ZM16.4 21.6H2C1.68174 21.6 1.37652 21.4736 1.15147 21.2485C0.926428 21.0235 0.8 20.7183 0.8 20.4V2C0.8 1.68174 0.926428 1.37652 1.15147 1.15147C1.37652 0.926428 1.68174 0.8 2 0.8H16.4C16.7183 0.8 17.0235 0.926428 17.2485 1.15147C17.4736 1.37652 17.6 1.68174 17.6 2V20.4C17.6 20.7183 17.4736 21.0235 17.2485 21.2485C17.0235 21.4736 16.7183 21.6 16.4 21.6ZM20 20.8C20 21.0122 19.9157 21.2157 19.7657 21.3657C19.6157 21.5157 19.4122 21.6 19.2 21.6H18.4V0.8H19.2C19.4122 0.8 19.6157 0.884285 19.7657 1.03431C19.9157 1.18434 20 1.38783 20 1.6V20.8ZM20.8 6.4H22.8C22.9061 6.4 23.0078 6.44214 23.0828 6.51716C23.1579 6.59217 23.2 6.69391 23.2 6.8V7.6H20.8V6.4ZM22.8 13.6C22.6939 13.6 22.5922 13.5579 22.5172 13.4828C22.4421 13.4078 22.4 13.3061 22.4 13.2V8.4H23.2V13.2C23.2 13.3061 23.1579 13.4078 23.0828 13.4828C23.0078 13.5579 22.9061 13.6 22.8 13.6Z" fill="#1BA5B5"/>
</g>
<defs>
<clipPath id="clip0_166_703">
<rect width="24" height="24" fill="white"/>
</clipPath>
</defs>
</svg>
