<svg width="24" height="24" viewBox="0 0 24 24" fill="none" xmlns="http://www.w3.org/2000/svg">
<path d="M19.9688 11.1094C20.2276 11.1094 20.4375 10.8995 20.4375 10.6406C20.4375 10.3817 20.2276 10.1719 19.9688 10.1719C19.7099 10.1719 19.5 10.3817 19.5 10.6406C19.5 10.8995 19.7099 11.1094 19.9688 11.1094Z" fill="#1BA5B5"/>
<path d="M17.625 8.20312C17.1239 8.20312 16.6533 8.39813 16.2994 8.7525C15.945 9.10641 15.75 9.57703 15.75 10.0781V11.25C15.75 11.7511 15.945 12.2217 16.2994 12.5756C16.6533 12.93 17.1239 13.125 17.625 13.125C17.8758 13.1245 18.1111 13.027 18.2878 12.8503C18.4645 12.6736 18.5625 12.4383 18.5625 12.1875V9.14062C18.5625 8.89312 18.4627 8.65172 18.2878 8.47781C18.1139 8.30344 17.8725 8.20312 17.6259 8.20312H17.625ZM17.625 9.14109V12.187L17.6245 12.1875C17.1089 12.1866 16.6884 11.7661 16.6875 11.25V10.0781C16.6884 9.56203 17.1089 9.14156 17.625 9.14062V9.14109Z" fill="#1BA5B5"/>
<path d="M20.4375 14.1431V12.75C20.4375 12.4917 20.227 12.2812 19.9688 12.2812C19.7105 12.2812 19.5 12.4917 19.5 12.75V14.0625H4.5V7.26562H19.5V8.53125C19.5 8.79 19.7105 9 19.9688 9C20.227 9 20.4375 8.79 20.4375 8.53125V7.185C20.9831 6.9915 21.375 6.47048 21.375 5.85938C21.375 5.24827 20.9831 4.72725 20.4375 4.53375V1.40625C20.4375 0.630844 19.8067 0 19.0312 0H4.96875C4.19334 0 3.5625 0.630844 3.5625 1.40625V4.53375C3.01692 4.72725 2.625 5.24827 2.625 5.85938C2.625 6.47048 3.01692 6.9915 3.5625 7.185V14.1431C3.01692 14.3366 2.625 14.8576 2.625 15.4688C2.625 16.0799 3.01692 16.6009 3.5625 16.7944V17.3585C3.5625 18.3262 4.14389 19.1816 5.04361 19.5377L9.1875 21.1779V22.5938C9.1875 23.3692 9.81834 24 10.5938 24H13.4062C14.1817 24 14.8125 23.3692 14.8125 22.5938V21.1779L18.9563 19.5376C19.8561 19.1815 20.4375 18.3261 20.4375 17.3584V16.7944C20.9831 16.6009 21.375 16.0799 21.375 15.4688C21.375 14.8576 20.9831 14.3366 20.4375 14.1431ZM4.5 1.40625C4.5 1.14778 4.71028 0.9375 4.96875 0.9375H19.0312C19.2897 0.9375 19.5 1.14778 19.5 1.40625V1.9005C18.8374 1.98895 18.3461 2.27855 18.3219 2.29303C18.3172 2.29589 17.829 2.57812 17.25 2.57812C16.6714 2.57812 16.1812 2.29486 16.1781 2.29303C16.1496 2.27597 15.4695 1.875 14.625 1.875C13.7805 1.875 13.1004 2.27597 13.0719 2.29303C13.0672 2.29589 12.579 2.57812 12 2.57812C11.4214 2.57812 10.9312 2.29486 10.9281 2.29303C10.8996 2.27597 10.2195 1.875 9.375 1.875C8.53055 1.875 7.85044 2.27597 7.82189 2.29303C7.81716 2.29589 7.329 2.57812 6.75 2.57812C6.17142 2.57812 5.6812 2.29486 5.67811 2.29303C5.65392 2.27859 5.16263 1.989 4.5 1.9005V1.40625ZM4.5 2.84958C4.90069 2.92645 5.1945 3.09623 5.19689 3.09764C5.22544 3.11466 5.90555 3.51562 6.75 3.51562C7.59445 3.51562 8.27456 3.11466 8.30311 3.09759C8.30784 3.09473 8.796 2.8125 9.375 2.8125C9.95358 2.8125 10.4438 3.09577 10.4469 3.09759C10.4754 3.11466 11.1555 3.51562 12 3.51562C12.8445 3.51562 13.5246 3.11466 13.5531 3.09759C13.5578 3.09473 14.046 2.8125 14.625 2.8125C15.2036 2.8125 15.6938 3.09577 15.6969 3.09759C15.7254 3.11466 16.4055 3.51562 17.25 3.51562C18.0945 3.51562 18.7746 3.11466 18.8031 3.09759C18.8068 3.09539 19.0996 2.92603 19.5 2.84944V4.45312H4.5V2.84958ZM4.03125 5.39062H19.9688C20.2272 5.39062 20.4375 5.60091 20.4375 5.85938C20.4375 6.11784 20.2272 6.32812 19.9688 6.32812H4.03125C3.77278 6.32812 3.5625 6.11784 3.5625 5.85938C3.5625 5.60091 3.77278 5.39062 4.03125 5.39062ZM13.875 22.5938C13.875 22.8522 13.6647 23.0625 13.4062 23.0625H10.5938C10.3353 23.0625 10.125 22.8522 10.125 22.5938V21.3281H13.875V22.5938ZM19.5 17.3584C19.5 17.939 19.1512 18.4522 18.6113 18.666L14.2544 20.3906H9.74564L5.38866 18.666C4.8488 18.4523 4.5 17.9391 4.5 17.3584V16.875H19.5V17.3584ZM19.9688 15.9375H4.03125C3.77278 15.9375 3.5625 15.7272 3.5625 15.4688C3.5625 15.2103 3.77278 15 4.03125 15H19.9688C20.2272 15 20.4375 15.2103 20.4375 15.4688C20.4375 15.7272 20.2272 15.9375 19.9688 15.9375Z" fill="#1BA5B5"/>
</svg>
