<svg width="24" height="24" viewBox="0 0 24 24" fill="none" xmlns="http://www.w3.org/2000/svg">
<path d="M11.9996 0C7.36801 0 3.59961 5.3832 3.59961 12C3.59961 18.6168 7.36801 24 11.9996 24C16.6312 24 20.3996 18.6168 20.3996 12C20.3996 5.3832 16.6312 0 11.9996 0ZM11.9996 23.2C7.80881 23.2 4.39961 18.1756 4.39961 12C4.39961 5.8244 7.80881 0.8 11.9996 0.8C16.1904 0.8 19.5996 5.8244 19.5996 12C19.5996 18.1756 16.1904 23.2 11.9996 23.2Z" fill="#1BA5B5"/>
<path d="M12.0002 1.59961C8.3142 1.59961 5.2002 6.36241 5.2002 11.9996C5.2002 17.6368 8.3142 22.3996 12.0002 22.3996C15.6862 22.3996 18.8002 17.6368 18.8002 11.9996C18.8002 6.36241 15.6862 1.59961 12.0002 1.59961ZM12.0002 21.5996C8.7478 21.5996 6.0002 17.2032 6.0002 11.9996C6.0002 6.79601 8.7478 2.39961 12.0002 2.39961C15.2526 2.39961 18.0002 6.79601 18.0002 11.9996C18.0002 17.2032 15.2526 21.5996 12.0002 21.5996Z" fill="#1BA5B5"/>
<path d="M15.1072 13.5751C14.9158 13.4647 14.6711 13.5303 14.5606 13.7217L11.7606 18.5713C11.7255 18.6321 11.707 18.7011 11.707 18.7713C11.707 18.9922 11.8861 19.1713 12.107 19.1713C12.2501 19.1715 12.3823 19.0952 12.4538 18.9713L15.2538 14.1217C15.3643 13.9303 15.2986 13.6856 15.1072 13.5751Z" fill="#1BA5B5"/>
<path d="M16.8934 13.6845C16.702 13.574 16.4572 13.6397 16.3468 13.8311L13.5468 18.6807C13.5117 18.7414 13.4933 18.8102 13.4932 18.8803C13.4929 19.1012 13.6719 19.2805 13.8928 19.2807C14.0361 19.2811 14.1687 19.2048 14.2404 19.0807L17.04 14.2311C17.1504 14.0397 17.0848 13.7949 16.8934 13.6845Z" fill="#1BA5B5"/>
</svg>
