<svg width="24" height="24" viewBox="0 0 24 24" fill="none" xmlns="http://www.w3.org/2000/svg">
<g clip-path="url(#clip0_166_2122)">
<path d="M22.2703 5.8456C20.0461 4.00098 15.5066 3.34375 12 3.34375C8.49333 3.34375 3.95384 4.00098 1.72969 5.8456C-0.240189 7.47931 0.00396809 10.7804 0.0152702 10.9201C0.0276046 11.0717 0.127724 11.2022 0.271091 11.2533C0.327447 11.2734 1.68216 11.7455 4.34807 11.7455C4.56183 11.7455 4.73513 11.5722 4.73513 11.3585C4.73513 11.1447 4.56183 10.9714 4.34807 10.9714C2.45896 10.9714 1.26093 10.7214 0.776592 10.5952C0.76369 9.82954 0.850236 7.58072 2.22384 6.44147C4.28955 4.72829 8.62834 4.11787 12 4.11787C15.3716 4.11787 19.7104 4.72829 21.7762 6.44147C23.1457 7.57726 23.2348 9.82912 23.223 10.5952C22.7378 10.7216 21.54 10.9714 19.652 10.9714C19.4382 10.9714 19.265 11.1447 19.265 11.3584C19.265 11.5722 19.4382 11.7455 19.652 11.7455C22.3178 11.7455 23.6725 11.2734 23.7289 11.2532C23.8723 11.2021 23.9724 11.0717 23.9847 10.92C23.9961 10.7804 24.2402 7.47936 22.2703 5.8456Z" fill="#1BA5B5"/>
<path d="M11.9996 9.12305C9.7942 9.12305 8 10.9173 8 13.1227C8 15.3281 9.7942 17.1223 11.9996 17.1223C14.205 17.1223 15.9992 15.3281 15.9992 13.1227C15.9992 10.9173 14.205 9.12305 11.9996 9.12305ZM11.9996 16.3482C10.2211 16.3482 8.77412 14.9012 8.77412 13.1227C8.77412 11.3442 10.2211 9.89717 11.9996 9.89717C13.7782 9.89717 15.2251 11.3442 15.2251 13.1227C15.2251 14.9012 13.7782 16.3482 11.9996 16.3482Z" fill="#1BA5B5"/>
<path d="M13.298 12.7358C13.0842 12.7358 12.911 12.9091 12.911 13.1228C12.911 13.6253 12.5022 14.034 11.9998 14.034C11.4973 14.034 11.0886 13.6253 11.0886 13.1228C11.0886 12.6204 11.4973 12.2116 11.9998 12.2116C12.2136 12.2116 12.3868 12.0383 12.3868 11.8246C12.3868 11.6108 12.2136 11.4375 11.9998 11.4375C11.0705 11.4375 10.3145 12.1935 10.3145 13.1228C10.3145 14.0521 11.0705 14.8081 11.9998 14.8081C12.9291 14.8081 13.6851 14.0521 13.6851 13.1228C13.6851 12.9091 13.5118 12.7358 13.298 12.7358Z" fill="#1BA5B5"/>
<path d="M18.9295 12.5673C18.6722 12.2286 18.4465 11.5582 18.4465 11.1328V8.86054C18.4465 8.18494 17.9463 7.48302 17.3077 7.2625C17.2418 7.23974 15.6518 6.70508 11.9991 6.70508C8.34636 6.70508 6.75632 7.23974 6.69042 7.2625C6.05187 7.48302 5.55169 8.18499 5.55169 8.86054V11.1328C5.55169 11.5582 5.32595 12.2285 5.06859 12.5673L3.39277 14.7731C3.03348 15.2461 2.75195 16.0819 2.75195 16.6759V19.3385C2.75195 20.0641 3.3423 20.6545 4.06796 20.6545H19.9301C20.6558 20.6545 21.2462 20.0641 21.2462 19.3385V16.6759C21.2462 16.0819 20.9647 15.2462 20.6053 14.7731L18.9295 12.5673ZM20.472 19.3385C20.472 19.6373 20.229 19.8804 19.9301 19.8804H4.06796C3.76915 19.8804 3.52607 19.6373 3.52607 19.3385V16.676C3.52607 16.2505 3.75181 15.5802 4.00918 15.2415L5.68499 13.0356C6.04429 12.5626 6.32581 11.7268 6.32581 11.1328V8.86054C6.32581 8.5126 6.6143 8.10778 6.94221 7.9945C6.95739 7.98934 8.4998 7.4792 11.9991 7.4792C15.4984 7.4792 17.0407 7.98939 17.055 7.99419C17.3839 8.10778 17.6724 8.5126 17.6724 8.86054V11.1328C17.6724 11.7268 17.9539 12.5626 18.3132 13.0356L19.989 15.2414C20.2463 15.5802 20.4721 16.2505 20.4721 16.6759V19.3385H20.472Z" fill="#1BA5B5"/>
</g>
<defs>
<clipPath id="clip0_166_2122">
<rect width="24" height="24" fill="white"/>
</clipPath>
</defs>
</svg>
