<svg width="24" height="24" viewBox="0 0 24 24" fill="none" xmlns="http://www.w3.org/2000/svg">
<path d="M12.1749 15.6098C12.0152 15.6098 11.8553 15.602 11.6962 15.5863C11.0384 15.5213 10.411 15.3229 9.88156 15.0123C8.30656 14.0884 5.03817 12.1468 3.22995 11.0717C2.73002 10.7744 2.31729 10.3843 2.03662 9.94337C1.74741 9.48903 1.59625 8.97942 1.59967 8.46938L1.59995 8.4198V8.06775C1.59995 7.42792 1.86922 6.79707 2.35817 6.2913C2.8326 5.80064 3.48098 5.44703 4.23322 5.26851C6.47583 4.73639 9.45772 4.01977 10.9279 3.62712C11.3815 3.50602 11.8727 3.46656 12.3484 3.51315C12.8268 3.56002 13.2926 3.69408 13.6955 3.90081C16.1002 5.13516 20.3108 7.30341 21.4927 7.95748C22.0509 8.26636 22.4048 9.0015 22.334 9.70544C22.2938 10.1049 22.122 10.4799 21.837 10.7898C21.8306 10.7968 21.8242 10.8036 21.8177 10.8106C21.8917 10.8958 21.954 10.9912 22.0029 11.0957C22.1238 11.3542 22.1533 11.6574 22.0859 11.9496C21.9617 12.4872 21.7152 12.7697 21.2067 12.9573C21.2009 12.9594 21.1951 12.9614 21.1892 12.9633L13.6284 15.3866C13.1668 15.5342 12.672 15.6098 12.1749 15.6098ZM11.9528 4.34887C11.6817 4.34887 11.4094 4.38321 11.1481 4.45287C9.66843 4.84809 6.67813 5.5667 4.43025 6.10011C3.26684 6.37607 2.45448 7.18516 2.45448 8.06761V8.42079V8.4235L2.4542 8.47479C2.4495 9.19711 2.89144 9.87583 3.66661 10.3369C5.47398 11.4115 8.74081 13.3521 10.3138 14.2749C11.1815 14.7838 12.3514 14.8977 13.3672 14.5722L20.9188 12.1519C21.1443 12.0677 21.1949 12.0066 21.2526 11.7569C21.2693 11.6845 21.3012 11.4651 21.1208 11.3228C20.9396 11.4164 20.7399 11.4977 20.5222 11.5662C20.5218 11.5664 20.5212 11.5665 20.5208 11.5667C20.4564 11.5868 14.071 13.5739 12.7488 14.0258C12.4053 14.1432 12.1487 14.0887 11.994 14.0223C11.7827 13.9317 11.6146 13.7573 11.5205 13.5315C11.411 13.2685 11.4046 12.9475 11.503 12.6509C11.611 12.3253 11.8298 12.0672 12.1193 11.9237C12.1371 11.9149 12.1555 11.9073 12.1745 11.901L19.4162 9.49744C19.6402 9.42307 19.8821 9.54445 19.9564 9.76841C20.0308 9.99252 19.9094 10.2343 19.6855 10.3087L12.4782 12.7007C12.3043 12.8046 12.2547 13.071 12.3097 13.2026C12.3192 13.2256 12.3286 13.2356 12.331 13.2365C12.3413 13.241 12.3867 13.246 12.4724 13.2167C13.8042 12.7616 19.9885 10.8369 20.2659 10.7506C21.0009 10.5191 21.4331 10.1173 21.4833 9.61953C21.5239 9.21549 21.3048 8.83025 21.0785 8.70502C19.863 8.03242 15.2373 5.65275 13.3048 4.66088C12.9035 4.45515 12.4302 4.34887 11.9528 4.34887Z" fill="#1BA5B5"/>
<path d="M12.4151 18.9901C12.262 18.9901 12.1396 18.9559 12.0507 18.9178C11.8394 18.8271 11.6713 18.6528 11.5773 18.4269C11.4677 18.1639 11.4613 17.843 11.5597 17.5463C11.6677 17.2208 11.8866 16.9626 12.1761 16.8192C12.1939 16.8103 12.2122 16.8028 12.2312 16.7965L19.4729 14.3929C19.697 14.3185 19.9388 14.4399 20.0132 14.6639C20.0875 14.8879 19.9661 15.1298 19.7422 15.2041L12.5349 17.5962C12.361 17.7001 12.3114 17.9665 12.3664 18.0981C12.3759 18.1211 12.3853 18.131 12.3878 18.132C12.398 18.1364 12.4435 18.1414 12.5291 18.1122C13.8612 17.6569 20.0491 15.7311 20.3229 15.6459C21.0577 15.4143 21.49 15.0127 21.54 14.5149C21.5806 14.1108 21.3615 13.7256 21.1353 13.6004C20.9392 13.4919 20.6432 13.3328 20.2552 13.1275C20.0466 13.0171 19.967 12.7584 20.0774 12.5498C20.1878 12.3412 20.4466 12.2616 20.6551 12.372C21.0478 12.5799 21.3485 12.7414 21.5491 12.8524C22.1073 13.1613 22.4612 13.8964 22.3904 14.6004C22.3502 14.9998 22.1784 15.3748 21.8935 15.6847C21.5819 16.0235 21.1397 16.2849 20.5789 16.4614C20.5785 16.4616 20.5779 16.4617 20.5775 16.4619C20.5131 16.4819 14.1277 18.4691 12.8055 18.921C12.6593 18.9713 12.5287 18.9901 12.4151 18.9901Z" fill="#1BA5B5"/>
<path d="M12.2317 20.5048C12.072 20.5048 11.9121 20.497 11.753 20.4813C11.0952 20.4164 10.4676 20.2179 9.9382 19.9073C8.36391 18.9838 5.09509 17.042 3.28659 15.9667C2.78666 15.6694 2.37393 15.2793 2.09326 14.8384C1.80405 14.384 1.65289 13.8744 1.65631 13.3644L1.65659 13.3144V12.9628C1.65659 12.0025 2.25026 11.1044 3.24498 10.5603C3.45214 10.447 3.71186 10.5231 3.82512 10.7301C3.93838 10.9373 3.8623 11.197 3.6553 11.3103C2.9391 11.7021 2.51155 12.3198 2.51155 12.9626V13.3158V13.3189L2.51127 13.37C2.50656 14.0923 2.94851 14.771 3.72368 15.232C5.53133 16.3068 8.79845 18.2475 10.3709 19.17C11.2385 19.6789 12.4085 19.7929 13.4243 19.4674L20.976 17.0471C21.2016 16.9629 21.2521 16.9018 21.3098 16.652C21.3294 16.5674 21.3697 16.2812 21.0662 16.1531C20.8487 16.0613 20.7468 15.8106 20.8385 15.5932C20.9303 15.3758 21.181 15.2738 21.3985 15.3655C21.6991 15.4923 21.9277 15.7084 22.0597 15.9905C22.1806 16.2491 22.2101 16.5523 22.1427 16.8445C22.0185 17.382 21.772 17.6646 21.2635 17.8522C21.2577 17.8543 21.252 17.8563 21.246 17.8582L13.6852 20.2814C13.2235 20.4293 12.7286 20.5048 12.2317 20.5048Z" fill="#1BA5B5"/>
</svg>
