<svg width="24" height="24" viewBox="0 0 24 24" fill="none" xmlns="http://www.w3.org/2000/svg">
<path d="M20.282 0H3.7179C3.42335 0 3.18457 0.238781 3.18457 0.533333V21.5179C3.18457 21.8124 3.42335 22.0512 3.7179 22.0512H5.12507V23.4667C5.12507 23.7612 5.36385 24 5.6584 24C5.95295 24 6.19173 23.7612 6.19173 23.4667V22.0512H17.8083V23.4667C17.8083 23.7612 18.047 24 18.3416 24C18.6361 24 18.8749 23.7612 18.8749 23.4667V22.0512H20.2821C20.5766 22.0512 20.8154 21.8124 20.8154 21.5179V0.533333C20.8153 0.238781 20.5766 0 20.282 0ZM4.25124 1.06667H11.4666V20.9845H4.25124V1.06667ZM19.7487 20.9845H12.5333V1.06667H19.7487V20.9845Z" fill="#1BA5B5"/>
<path d="M9.3826 12.6324C9.73143 12.6324 10.0142 12.3496 10.0142 12.0008C10.0142 11.6519 9.73143 11.3691 9.3826 11.3691C9.03376 11.3691 8.75098 11.6519 8.75098 12.0008C8.75098 12.3496 9.03376 12.6324 9.3826 12.6324Z" fill="#1BA5B5"/>
<path d="M14.6179 12.6324C14.9668 12.6324 15.2496 12.3496 15.2496 12.0008C15.2496 11.6519 14.9668 11.3691 14.6179 11.3691C14.2691 11.3691 13.9863 11.6519 13.9863 12.0008C13.9863 12.3496 14.2691 12.6324 14.6179 12.6324Z" fill="#1BA5B5"/>
</svg>
