<svg width="24" height="24" viewBox="0 0 24 24" fill="none" xmlns="http://www.w3.org/2000/svg">
<path d="M6.1875 12.816V14.008H6.7595V14.496C6.7595 16.276 7.6555 17.848 9.0155 18.796L8.1515 20.776C8.0315 21.048 8.0595 21.36 8.2195 21.608C8.3795 21.856 8.6555 22.004 8.9515 22.004H15.0395C15.3355 22.004 15.6115 21.856 15.7715 21.608C15.9315 21.36 15.9595 21.048 15.8395 20.78L14.9755 18.8C16.3355 17.852 17.2315 16.28 17.2315 14.5V14.012H17.8035V12.82C17.8035 12.224 17.4075 11.724 16.8635 11.56C17.1315 10.72 17.2755 9.836 17.2755 8.912C17.2795 5.1 14.9115 2 11.9995 2C9.0875 2 6.7195 5.1 6.7195 8.908C6.7195 9.832 6.8635 10.716 7.1315 11.556C6.5875 11.72 6.1875 12.22 6.1875 12.816ZM15.1115 21.096C15.1235 21.12 15.1195 21.144 15.1075 21.168C15.0915 21.188 15.0675 21.2 15.0395 21.2H8.9555C8.9275 21.2 8.9075 21.188 8.8955 21.168C8.8795 21.144 8.8795 21.12 8.8915 21.096L9.7155 19.2C10.4075 19.536 11.1795 19.732 11.9995 19.732C12.8195 19.732 13.5915 19.536 14.2835 19.2L15.1115 21.096ZM16.4355 14.496C16.4355 16.944 14.4435 18.932 11.9995 18.932C9.5555 18.932 7.5635 16.94 7.5635 14.496V14.008H16.4355V14.496ZM11.9995 2.8C14.4715 2.8 16.4795 5.54 16.4795 8.908C16.4795 9.812 16.3355 10.68 16.0555 11.492H15.3235C15.6355 10.696 15.7995 9.816 15.7995 8.908C15.7995 5.964 14.0595 3.48 11.9955 3.48C9.9315 3.48 8.1915 5.968 8.1915 8.908C8.1915 9.816 8.3555 10.696 8.6675 11.492H7.9355C7.6555 10.68 7.5115 9.812 7.5115 8.908C7.5195 5.54 9.5275 2.8 11.9995 2.8ZM8.9955 8.908C8.9955 6.444 10.3995 4.28 11.9995 4.28C13.5995 4.28 15.0035 6.444 15.0035 8.908C15.0035 9.828 14.8195 10.716 14.4635 11.492H9.5355C9.1835 10.716 8.9955 9.828 8.9955 8.908ZM6.9875 12.816C6.9875 12.528 7.2235 12.292 7.5115 12.292H9.0395H14.9595H16.4875C16.7755 12.292 17.0115 12.528 17.0115 12.816V13.208H6.9875V12.816Z" fill="#1BA5B5"/>
</svg>
