<svg width="24" height="24" viewBox="0 0 24 24" fill="none" xmlns="http://www.w3.org/2000/svg">
<g clip-path="url(#clip0_166_2052)">
<path d="M18.3749 24.0004H5.62486C5.43173 24.0004 5.27011 23.8538 5.25173 23.6614L3.00173 0.411375C2.99161 0.306 3.02611 0.201375 3.09736 0.123C3.16823 0.045 3.26911 0 3.37486 0H20.6249C20.7306 0 20.8315 0.044625 20.9024 0.123C20.9732 0.201375 21.0081 0.306 20.998 0.411375L18.748 23.6614C18.7296 23.8538 18.568 24.0004 18.3749 24.0004ZM5.96536 23.2504H18.0344L20.2116 0.750375H3.78811L5.96536 23.2504Z" fill="#1BA5B5"/>
<path d="M19.8754 6.75C18.4631 6.75 17.7517 6.34388 17.0636 5.9505C16.4329 5.5905 15.837 5.25 14.6239 5.25C13.4107 5.25 12.8149 5.5905 12.1845 5.9505C11.4968 6.3435 10.7854 6.75 9.37275 6.75C7.96012 6.75 7.25025 6.3435 6.5625 5.9505C5.9325 5.59012 5.337 5.25 4.125 5.25C3.918 5.25 3.75 5.082 3.75 4.875C3.75 4.668 3.918 4.5 4.125 4.5C5.5365 4.5 6.2475 4.90612 6.93488 5.2995C7.56525 5.65988 8.16038 6 9.37275 6C10.5851 6 11.1818 5.6595 11.8121 5.2995C12.4999 4.9065 13.2112 4.5 14.6239 4.5C16.0365 4.5 16.7479 4.90612 17.4356 5.2995C18.0664 5.6595 18.6619 6 19.875 6C20.082 6 20.25 6.168 20.25 6.375C20.25 6.582 20.0824 6.75 19.8754 6.75Z" fill="#1BA5B5"/>
<path d="M18.375 21.375H5.625C5.418 21.375 5.25 21.207 5.25 21C5.25 20.793 5.418 20.625 5.625 20.625H18.375C18.582 20.625 18.75 20.793 18.75 21C18.75 21.207 18.582 21.375 18.375 21.375Z" fill="#1BA5B5"/>
</g>
<defs>
<clipPath id="clip0_166_2052">
<rect width="24" height="24" fill="white"/>
</clipPath>
</defs>
</svg>
