<svg width="24" height="24" viewBox="0 0 24 24" fill="none" xmlns="http://www.w3.org/2000/svg">
<path d="M22.3954 20.2783C22.1365 20.2783 21.9266 20.0685 21.9266 19.8096V7.15039H20.3262C20.0673 7.15039 19.8574 6.94053 19.8574 6.68164C19.8574 6.42275 20.0673 6.21289 20.3262 6.21289H22.3954C22.6542 6.21289 22.8641 6.42275 22.8641 6.68164V19.8096C22.8641 20.0685 22.6543 20.2783 22.3954 20.2783Z" fill="#1BA5B5"/>
<path d="M23.5312 3.7207H0.46875C0.209906 3.7207 0 3.93056 0 4.18945V6.68086C0 6.93975 0.209906 7.14961 0.46875 7.14961H1.1355V19.8088C1.1355 20.0677 1.34541 20.2776 1.60425 20.2776H3.67345C3.9323 20.2776 4.1422 20.0677 4.1422 19.8088V7.14956H10.0039V19.8088C10.0039 20.0677 10.2138 20.2775 10.4726 20.2775H22.3958C22.6546 20.2775 22.8645 20.0677 22.8645 19.8088V7.14956H23.5312C23.7901 7.14956 24 6.9397 24 6.68081V4.18941C24 3.93056 23.7901 3.7207 23.5312 3.7207ZM3.20466 19.34H2.073V7.14956H3.2047L3.20466 19.34ZM21.927 19.34H10.9413V11.6717H21.927V19.34ZM21.927 10.7342H10.9413V7.14956H21.927V10.7342ZM23.0625 6.21206H0.9375V4.65816H23.0625V6.21206Z" fill="#1BA5B5"/>
<path d="M15.5547 9.61523H17.3134C17.5722 9.61523 17.7821 9.40538 17.7821 9.14648C17.7821 8.88759 17.5722 8.67773 17.3134 8.67773H15.5547C15.2958 8.67773 15.0859 8.88759 15.0859 9.14648C15.0859 9.40538 15.2958 9.61523 15.5547 9.61523Z" fill="#1BA5B5"/>
<path d="M12.7676 16.9472C13.0264 16.9472 13.2363 16.7374 13.2363 16.4785V14.5332C13.2363 14.2743 13.0264 14.0645 12.7676 14.0645C12.5087 14.0645 12.2988 14.2743 12.2988 14.5332V16.4785C12.2988 16.7374 12.5087 16.9472 12.7676 16.9472Z" fill="#1BA5B5"/>
</svg>
