<svg width="24" height="24" viewBox="0 0 24 24" fill="none" xmlns="http://www.w3.org/2000/svg">
<path d="M19.8789 12.0259H18.609V7.41253H18.6349C19.3066 7.41253 19.853 6.86607 19.853 6.19438V2.87689C19.853 1.29056 18.5624 0 16.9761 0H7.02365C5.43731 0 4.14676 1.29056 4.14676 2.87689V6.19438C4.14676 6.86607 4.69321 7.41253 5.3649 7.41253H5.39082V12.0259H4.12084C3.6778 12.0259 3.31738 12.3863 3.31738 12.8294V13.6587C3.31738 14.1018 3.6778 14.4622 4.12084 14.4622H4.52619L3.77271 23.1269C3.75327 23.3507 3.82916 23.574 3.98093 23.7395C4.13271 23.905 4.34861 23.9999 4.57316 23.9999H5.03066C5.4059 23.9999 5.7361 23.7338 5.81577 23.3672L6.85015 18.6091H17.1495L18.1839 23.3672C18.2637 23.7339 18.5938 24 18.969 24H19.4265C19.6511 24 19.867 23.905 20.0188 23.7395C20.1706 23.574 20.2465 23.3508 20.227 23.127L19.4736 14.4622H19.8789C20.322 14.4622 20.6824 14.1018 20.6824 13.6587V12.8294C20.6824 12.3863 20.322 12.0259 19.8789 12.0259ZM17.8314 12.0259H16.9502V7.41253H17.8314V12.0259ZM7.8271 12.0259V7.41253H16.1727V12.0259H7.8271ZM4.92429 6.19438V2.87689C4.92429 1.71929 5.86605 0.777538 7.02365 0.777538H16.9761C18.1337 0.777538 19.0755 1.71929 19.0755 2.87689V6.19438C19.0755 6.43734 18.8778 6.63499 18.6349 6.63499H5.3649C5.12194 6.63499 4.92429 6.43734 4.92429 6.19438ZM6.16835 7.41253H7.04956V12.0259H6.16835V7.41253ZM5.05596 23.2021C5.05337 23.2139 5.04274 23.2225 5.03066 23.2225H4.57316C4.57 23.2225 4.56175 23.2225 4.55408 23.2141C4.54641 23.2057 4.54708 23.1974 4.54734 23.1943L5.30664 14.4622H6.95595L5.05596 23.2021ZM16.248 14.4622L16.6199 16.1728H7.37976L7.75163 14.4622H16.248ZM7.01919 17.8315L7.21077 16.9503H16.7889L16.9805 17.8315H7.01919ZM19.4524 23.1943C19.4527 23.1974 19.4534 23.2056 19.4457 23.214C19.438 23.2224 19.4297 23.2225 19.4266 23.2225H18.9691C18.9568 23.2225 18.9464 23.2141 18.9438 23.202L17.0438 14.4622H18.6931L19.4524 23.1943ZM19.9049 13.6587C19.9049 13.6731 19.8932 13.6847 19.8789 13.6847H4.12084C4.10658 13.6847 4.09492 13.6731 4.09492 13.6587V12.8294C4.09492 12.8151 4.10658 12.8035 4.12084 12.8035H19.8789C19.8932 12.8035 19.9049 12.8151 19.9049 12.8294V13.6587Z" fill="#1BA5B5"/>
</svg>
