<svg width="24" height="24" viewBox="0 0 24 24" fill="none" xmlns="http://www.w3.org/2000/svg">
<path d="M18 2.625C15.705 2.625 11.784 4.1025 9.7935 4.12312L5.72362 3.01312C5.487 2.94937 5.25 3.12563 5.25 3.375V9.375C5.25 9.62362 5.48662 9.80137 5.72362 9.73688L9.7935 8.62687C10.9699 8.63925 12.8921 9.17475 14.5103 9.55912C15.0195 9.68062 15.375 10.1299 15.375 10.6523C15.3409 11.6366 15.5063 12.9394 15.0379 14.8001C14.7821 15.8212 15.5096 16.7704 16.5 16.866V21C16.5 21.4961 17.25 21.4965 17.25 21V16.8563C17.8958 16.767 18.4455 16.3043 18.6266 15.666C19.2833 13.3837 19.0905 11.7071 19.125 10.9766C19.125 10.4647 19.4719 10.0174 19.968 9.88875C20.9558 9.63225 22.5 8.79 22.5 8.25V4.5C22.5 3.9645 20.7124 2.625 18 2.625ZM6 3.86588L9.375 4.7865V7.96387L6 8.8845V3.86588ZM19.7797 9.16275C18.9525 9.37687 18.375 10.1227 18.375 10.9766C18.3413 11.7067 18.5288 13.2938 17.9055 15.4605C17.667 16.302 16.7677 16.0988 16.6575 16.1254C16.083 16.1254 15.6143 15.5835 15.765 14.9835C16.2608 13.0151 16.0898 11.6348 16.125 10.653C16.125 9.78188 15.5325 9.03225 14.6839 8.8305C13.1629 8.46788 11.3629 7.97587 10.125 7.89038V4.86075C12.2355 4.71525 15.9634 3.375 18 3.375C18.9431 3.375 19.6815 3.52838 20.25 3.73088V9.01575C20.1034 9.06862 19.9492 9.1185 19.7797 9.16275ZM21.75 8.10862C21.6375 8.22562 21.3911 8.44688 21 8.6715V4.07138C21.396 4.2975 21.6383 4.52062 21.75 4.6395V8.10862Z" fill="#1BA5B5"/>
<path d="M3.90486 4.37965C3.29886 4.81915 2.78511 3.62853 1.66724 4.3714C1.25399 4.64515 1.66724 5.2699 2.08161 4.99615C2.76374 4.54465 3.25874 5.7724 4.34399 4.98753C4.74749 4.69578 4.30461 4.08903 3.90486 4.37965Z" fill="#1BA5B5"/>
<path d="M3.90486 6.25481C3.31574 6.68156 2.76561 5.51681 1.66724 6.24656C1.25399 6.52031 1.66724 7.14506 2.08161 6.87131C2.76636 6.41869 3.25761 7.64831 4.34399 6.86269C4.74674 6.57169 4.30574 5.96419 3.90486 6.25481Z" fill="#1BA5B5"/>
<path d="M3.90486 8.12981C3.31574 8.55656 2.76561 7.39181 1.66724 8.12156C1.25399 8.39531 1.66724 9.02006 2.08161 8.74631C2.76374 8.29481 3.25874 9.52256 4.34399 8.73769C4.74711 8.44631 4.30574 7.83881 3.90486 8.12981Z" fill="#1BA5B5"/>
</svg>
