<svg width="24" height="24" viewBox="0 0 24 24" fill="none" xmlns="http://www.w3.org/2000/svg">
<path d="M10.875 13.125C10.8019 13.1255 10.7302 13.1047 10.6688 13.065C10.4025 12.8887 10.1625 12.7425 9.945 12.6225C9.48501 12.3715 9.003 12.1631 8.505 12C7.12432 11.5274 5.62568 11.5274 4.245 12C3.74799 12.1687 3.26728 12.3821 2.80875 12.6375C2.5875 12.7612 2.3475 12.9075 2.08125 13.0837C2.02424 13.1167 1.95958 13.134 1.89375 13.134C1.82792 13.134 1.76326 13.1167 1.70625 13.0837C1.64441 13.0526 1.5924 13.0049 1.556 12.946C1.51959 12.8871 1.50021 12.8192 1.5 12.75V6.375C1.5 5.08207 2.01361 3.84209 2.92785 2.92785C3.84209 2.01361 5.08207 1.5 6.375 1.5C7.66793 1.5 8.90791 2.01361 9.82215 2.92785C10.7364 3.84209 11.25 5.08207 11.25 6.375V12.75C11.2498 12.8178 11.2312 12.8844 11.1962 12.9425C11.1612 13.0006 11.1111 13.0481 11.0512 13.08C10.9971 13.1092 10.9366 13.1247 10.875 13.125ZM6.375 2.25C5.28098 2.25 4.23177 2.6846 3.45818 3.45818C2.6846 4.23177 2.25 5.28098 2.25 6.375V12.075L2.445 11.9625C2.94331 11.6853 3.46538 11.4531 4.005 11.2687C5.54202 10.7475 7.20798 10.7475 8.745 11.2687C9.28627 11.4535 9.80966 11.6869 10.3088 11.9662L10.5 12.075V6.375C10.5 5.8333 10.3933 5.2969 10.186 4.79643C9.9787 4.29596 9.67486 3.84123 9.29182 3.45818C8.90877 3.07514 8.45404 2.7713 7.95357 2.564C7.4531 2.3567 6.9167 2.25 6.375 2.25Z" fill="#1BA5B5"/>
<path d="M6.375 22.4991C5.28098 22.4991 4.23177 22.0645 3.45818 21.2909C2.6846 20.5173 2.25 19.4681 2.25 18.3741V12.2916C2.25011 12.2252 2.26788 12.1599 2.30149 12.1026C2.33509 12.0453 2.38333 11.9979 2.44125 11.9654C2.94034 11.6861 3.46373 11.4526 4.005 11.2679C5.54202 10.7467 7.20798 10.7467 8.745 11.2679C9.28627 11.4526 9.80966 11.6861 10.3088 11.9654C10.3667 11.9979 10.4149 12.0453 10.4485 12.1026C10.4821 12.1599 10.4999 12.2252 10.5 12.2916V18.3741C10.5 18.9158 10.3933 19.4522 10.186 19.9527C9.9787 20.4531 9.67486 20.9079 9.29182 21.2909C8.90877 21.674 8.45404 21.9778 7.95357 22.1851C7.4531 22.3924 6.9167 22.4991 6.375 22.4991ZM3 12.5166V18.3741C3 19.2692 3.35558 20.1277 3.98851 20.7606C4.62145 21.3935 5.47989 21.7491 6.375 21.7491C7.27011 21.7491 8.12855 21.3935 8.76149 20.7606C9.39442 20.1277 9.75 19.2692 9.75 18.3741V12.5166C9.34919 12.3118 8.93291 12.1387 8.505 11.9991C7.12432 11.5265 5.62568 11.5265 4.245 11.9991C3.81709 12.1387 3.40081 12.3118 3 12.5166Z" fill="#1BA5B5"/>
<path d="M6.375 20.9991C5.67881 20.9991 5.01113 20.7225 4.51885 20.2303C4.02656 19.738 3.75 19.0703 3.75 18.3741V11.6241C3.7498 11.5455 3.77431 11.4688 3.82007 11.4049C3.86583 11.3409 3.93052 11.293 4.005 11.2679C5.54202 10.7467 7.20798 10.7467 8.745 11.2679C8.81948 11.293 8.88418 11.3409 8.92994 11.4049C8.97569 11.4688 9.0002 11.5455 9 11.6241V18.3741C9 19.0703 8.72344 19.738 8.23116 20.2303C7.73887 20.7225 7.07119 20.9991 6.375 20.9991ZM4.5 11.9016V18.3741C4.5 18.8714 4.69755 19.3483 5.04918 19.6999C5.40081 20.0516 5.87772 20.2491 6.375 20.2491C6.87228 20.2491 7.3492 20.0516 7.70083 19.6999C8.05246 19.3483 8.25 18.8714 8.25 18.3741V11.9016C7.02645 11.5379 5.72355 11.5379 4.5 11.9016Z" fill="#1BA5B5"/>
<path d="M22.125 13.125C22.0519 13.1255 21.9802 13.1047 21.9188 13.065C21.6525 12.8887 21.4125 12.7425 21.195 12.6225C20.735 12.3715 20.253 12.1631 19.755 12C18.3743 11.5274 16.8757 11.5274 15.495 12C14.998 12.1687 14.5173 12.3821 14.0588 12.6375C13.8375 12.7612 13.5975 12.9075 13.3312 13.0837C13.2742 13.1167 13.2096 13.134 13.1437 13.134C13.0779 13.134 13.0133 13.1167 12.9562 13.0837C12.8944 13.0526 12.8424 13.0049 12.806 12.946C12.7696 12.8871 12.7502 12.8192 12.75 12.75V6.375C12.75 5.08207 13.2636 3.84209 14.1779 2.92785C15.0921 2.01361 16.3321 1.5 17.625 1.5C18.9179 1.5 20.1579 2.01361 21.0721 2.92785C21.9864 3.84209 22.5 5.08207 22.5 6.375V12.75C22.4998 12.8178 22.4812 12.8844 22.4462 12.9425C22.4112 13.0006 22.3611 13.0481 22.3013 13.08C22.2471 13.1092 22.1866 13.1247 22.125 13.125ZM17.625 2.25C16.531 2.25 15.4818 2.6846 14.7082 3.45818C13.9346 4.23177 13.5 5.28098 13.5 6.375V12.075L13.695 11.9625C14.1933 11.6853 14.7154 11.4531 15.255 11.2687C16.792 10.7475 18.458 10.7475 19.995 11.2687C20.5363 11.4535 21.0597 11.6869 21.5588 11.9662L21.75 12.075V6.375C21.75 5.8333 21.6433 5.2969 21.436 4.79643C21.2287 4.29596 20.9249 3.84123 20.5418 3.45818C20.1588 3.07514 19.704 2.7713 19.2036 2.564C18.7031 2.3567 18.1667 2.25 17.625 2.25Z" fill="#1BA5B5"/>
<path d="M17.625 22.4991C16.531 22.4991 15.4818 22.0645 14.7082 21.2909C13.9346 20.5173 13.5 19.4681 13.5 18.3741V12.2916C13.5001 12.2252 13.5179 12.1599 13.5515 12.1026C13.5851 12.0453 13.6333 11.9979 13.6912 11.9654C14.1903 11.6861 14.7137 11.4526 15.255 11.2679C16.792 10.7467 18.458 10.7467 19.995 11.2679C20.5363 11.4526 21.0597 11.6861 21.5588 11.9654C21.6167 11.9979 21.6649 12.0453 21.6985 12.1026C21.7321 12.1599 21.7499 12.2252 21.75 12.2916V18.3741C21.75 19.4681 21.3154 20.5173 20.5418 21.2909C19.7682 22.0645 18.719 22.4991 17.625 22.4991ZM14.25 12.5166V18.3741C14.25 19.2692 14.6056 20.1277 15.2385 20.7606C15.8715 21.3935 16.7299 21.7491 17.625 21.7491C18.5201 21.7491 19.3786 21.3935 20.0115 20.7606C20.6444 20.1277 21 19.2692 21 18.3741V12.5166C20.5992 12.3118 20.1829 12.1387 19.755 11.9991C18.3743 11.5265 16.8757 11.5265 15.495 11.9991C15.0671 12.1387 14.6508 12.3118 14.25 12.5166Z" fill="#1BA5B5"/>
<path d="M17.625 20.9991C16.9288 20.9991 16.2611 20.7225 15.7688 20.2303C15.2766 19.738 15 19.0703 15 18.3741V11.6241C14.9998 11.5455 15.0243 11.4688 15.0701 11.4049C15.1158 11.3409 15.1805 11.293 15.255 11.2679C16.792 10.7467 18.458 10.7467 19.995 11.2679C20.0695 11.293 20.1342 11.3409 20.1799 11.4049C20.2257 11.4688 20.2502 11.5455 20.25 11.6241V18.3741C20.25 19.0703 19.9734 19.738 19.4812 20.2303C18.9889 20.7225 18.3212 20.9991 17.625 20.9991ZM15.75 11.9016V18.3741C15.75 18.8714 15.9475 19.3483 16.2992 19.6999C16.6508 20.0516 17.1277 20.2491 17.625 20.2491C18.1223 20.2491 18.5992 20.0516 18.9508 19.6999C19.3025 19.3483 19.5 18.8714 19.5 18.3741V11.9016C18.2765 11.5379 16.9736 11.5379 15.75 11.9016Z" fill="#1BA5B5"/>
</svg>
