<svg width="24" height="24" viewBox="0 0 24 24" fill="none" xmlns="http://www.w3.org/2000/svg">
<g clip-path="url(#clip0_166_2160)">
<mask id="mask0_166_2160" style="mask-type:luminance" maskUnits="userSpaceOnUse" x="0" y="0" width="24" height="24">
<path d="M0.578125 0H23.6181V23.04H0.578125V0Z" fill="white"/>
</mask>
<g mask="url(#mask0_166_2160)">
<path d="M23.1381 15.3607H1.05812C0.793165 15.3607 0.578125 15.1457 0.578125 14.8807V7.2007C0.578125 6.93574 0.793165 6.7207 1.05812 6.7207H23.1381C23.4031 6.7207 23.6182 6.93574 23.6182 7.2007V14.8807C23.6182 15.1457 23.4031 15.3607 23.1381 15.3607ZM1.53812 14.4007H22.6581V7.6807H1.53812V14.4007Z" fill="#1BA5B5"/>
<path d="M20.259 11.5205H3.93898C3.67402 11.5205 3.45898 11.3055 3.45898 11.0405C3.45898 10.7756 3.67402 10.5605 3.93898 10.5605H20.259C20.524 10.5605 20.739 10.7756 20.739 11.0405C20.739 11.3055 20.524 11.5205 20.259 11.5205Z" fill="#1BA5B5"/>
<path d="M15.4588 12.4815C15.3772 12.4815 15.2956 12.4614 15.2207 12.4191L12.0988 10.6345L8.97685 12.4182C8.74933 12.5449 8.45364 12.47 8.32116 12.2386C8.18964 12.0092 8.26932 11.7154 8.50068 11.583L11.8607 9.66297C12.0086 9.57849 12.189 9.57849 12.3369 9.66297L15.6969 11.583C15.9273 11.7154 16.007 12.0082 15.8764 12.2386C15.7871 12.3942 15.6249 12.4815 15.4588 12.4815Z" fill="#1BA5B5"/>
<path d="M10.1788 16.3204C9.64886 16.3204 9.21875 15.8903 9.21875 15.3604C9.21875 14.8305 9.64886 14.4004 10.1788 14.4004C10.7087 14.4004 11.1388 14.8305 11.1388 15.3604C11.1388 15.8903 10.7087 16.3204 10.1788 16.3204Z" fill="#1BA5B5"/>
<path d="M14.0186 16.3204C13.4887 16.3204 13.0586 15.8903 13.0586 15.3604C13.0586 14.8305 13.4887 14.4004 14.0186 14.4004C14.5485 14.4004 14.9786 14.8305 14.9786 15.3604C14.9786 15.8903 14.5485 16.3204 14.0186 16.3204Z" fill="#1BA5B5"/>
</g>
</g>
<defs>
<clipPath id="clip0_166_2160">
<rect width="24" height="23.04" fill="white"/>
</clipPath>
</defs>
</svg>
