<svg width="24" height="24" viewBox="0 0 24 24" fill="none" xmlns="http://www.w3.org/2000/svg">
<path d="M21.1936 18.3746C21.4835 18.3746 21.7653 18.2786 21.9949 18.1015C22.2246 17.9245 22.3891 17.6764 22.4629 17.396C22.5366 17.1156 22.5154 16.8186 22.4026 16.5515C22.2898 16.2844 22.0918 16.0622 21.8393 15.9195C21.6095 15.7897 12.6792 10.7231 12.4298 10.6372C12.4152 10.2622 12.338 10.065 12.5663 9.98886C13.0125 9.84069 13.4008 9.55584 13.6761 9.17469C13.9514 8.79353 14.0997 8.3354 14.1001 7.86523C14.1001 7.2685 13.863 6.6962 13.4411 6.27424C13.0191 5.85229 12.4468 5.61523 11.8501 5.61523C11.2533 5.61523 10.6811 5.85229 10.2591 6.27424C9.83714 6.6962 9.60009 7.2685 9.60009 7.86523C9.60009 8.01442 9.65935 8.15749 9.76484 8.26298C9.87033 8.36847 10.0134 8.42773 10.1626 8.42773C10.3118 8.42773 10.4548 8.36847 10.5603 8.26298C10.6658 8.15749 10.7251 8.01442 10.7251 7.86523C10.7267 7.56822 10.846 7.28395 11.0569 7.07481C11.2678 6.86566 11.5531 6.74871 11.8501 6.74961C12.1453 6.75464 12.4271 6.87351 12.6367 7.08139C12.8464 7.28927 12.9676 7.5701 12.9751 7.86523C12.9747 8.09945 12.9005 8.32758 12.7631 8.51727C12.6258 8.70696 12.4321 8.84856 12.2097 8.92198C11.1665 9.27261 11.2906 10.2585 11.3097 10.7497L2.16084 15.9195C1.90841 16.0622 1.71034 16.2844 1.59754 16.5515C1.48473 16.8186 1.46356 17.1156 1.53731 17.396C1.61107 17.6764 1.7756 17.9245 2.00523 18.1015C2.23485 18.2786 2.51663 18.3746 2.80659 18.3746H21.1936ZM21.2855 16.8986C21.3216 16.9189 21.35 16.9506 21.3663 16.9888C21.3825 17.027 21.3856 17.0695 21.3751 17.1096C21.3646 17.1497 21.3411 17.1852 21.3082 17.2106C21.2754 17.2359 21.2351 17.2496 21.1936 17.2496H2.80659C2.76508 17.2497 2.72471 17.236 2.6918 17.2107C2.6589 17.1854 2.63533 17.1499 2.62478 17.1098C2.61422 17.0696 2.61729 17.0271 2.6335 16.9889C2.64971 16.9507 2.67814 16.9189 2.71434 16.8986L12.0001 11.6512L21.2855 16.8986Z" fill="#1BA5B5"/>
</svg>
