<svg width="24" height="24" viewBox="0 0 24 24" fill="none" xmlns="http://www.w3.org/2000/svg">
<path d="M22.6666 9.07977C22.6655 9.21 22.6262 9.33703 22.5537 9.44519C22.4811 9.55334 22.3785 9.63789 22.2584 9.68837C22.1384 9.73886 22.0062 9.75308 21.8781 9.72928C21.7501 9.70547 21.6318 9.64469 21.538 9.55444C20.2905 8.29555 18.8064 7.29589 17.171 6.61305C15.5355 5.9302 13.7812 5.57767 12.0089 5.57575C10.2367 5.57383 8.48156 5.92256 6.84467 6.60185C5.20777 7.28115 3.72144 8.27759 2.4713 9.53377C2.41053 9.59998 2.337 9.65322 2.25513 9.69029C2.17326 9.72736 2.08474 9.7475 1.99489 9.74948C1.90504 9.75147 1.81571 9.73527 1.73229 9.70186C1.64886 9.66845 1.57304 9.61851 1.50941 9.55505C1.44577 9.49159 1.39562 9.41592 1.36197 9.33259C1.32832 9.24925 1.31187 9.15998 1.3136 9.07012C1.31533 8.98027 1.33522 8.89169 1.37205 8.80972C1.40889 8.72774 1.46192 8.65406 1.52796 8.5931C2.90071 7.21416 4.53243 6.12009 6.32934 5.37375C8.12625 4.62741 10.0529 4.24352 11.9987 4.24414C13.9444 4.24476 15.8709 4.62988 17.6673 5.37736C19.4637 6.12484 21.0948 7.21996 22.4666 8.59977C22.5299 8.6627 22.5801 8.73749 22.6144 8.81986C22.6487 8.90222 22.6665 8.99054 22.6666 9.07977ZM19.406 12.6344C19.5309 12.5094 19.6012 12.3399 19.6012 12.1631C19.6012 11.9863 19.5309 11.8168 19.406 11.6918L19.288 11.5731C18.3318 10.6095 17.1943 9.84492 15.941 9.3234C14.6878 8.80187 13.3436 8.53377 11.9862 8.53458C10.6287 8.53539 9.28487 8.80508 8.03223 9.32809C6.77959 9.8511 5.64296 10.6171 4.68796 11.5818C4.64396 11.6264 4.5993 11.6724 4.55463 11.7264C4.44227 11.863 4.38876 12.0387 4.40589 12.2147C4.42302 12.3907 4.50938 12.5527 4.64596 12.6651C4.78255 12.7775 4.95818 12.831 5.13421 12.8138C5.31025 12.7967 5.47227 12.7104 5.58463 12.5738C5.6013 12.5531 5.61863 12.5371 5.64196 12.5131C6.47343 11.6748 7.46266 11.0094 8.55258 10.5553C9.64251 10.1012 10.8116 9.86739 11.9923 9.86739C13.173 9.86739 14.3421 10.1012 15.432 10.5553C16.5219 11.0094 17.5112 11.6748 18.3426 12.5131L18.4646 12.6351C18.5896 12.7601 18.7592 12.8303 18.936 12.8303C19.1127 12.8303 19.2823 12.7601 19.4073 12.6351L19.406 12.6344ZM16.29 15.7598C16.426 15.6469 16.5116 15.4846 16.528 15.3085C16.5444 15.1325 16.4902 14.9572 16.3773 14.8211C16.2986 14.7258 16.212 14.6311 16.1166 14.5351C15.576 13.9939 14.9341 13.5645 14.2274 13.2715C13.5207 12.9786 12.7633 12.8278 11.9983 12.8278C11.2333 12.8278 10.4758 12.9786 9.76919 13.2715C9.06253 13.5645 8.42055 13.9939 7.87996 14.5351C7.78431 14.6303 7.69522 14.7319 7.6133 14.8391C7.50721 14.9806 7.46166 15.1584 7.48666 15.3334C7.51167 15.5084 7.60518 15.6664 7.74663 15.7724C7.88808 15.8785 8.06588 15.9241 8.24091 15.8991C8.41594 15.8741 8.57388 15.7806 8.67996 15.6391C8.72504 15.5811 8.77404 15.5264 8.82663 15.4751C9.24333 15.0583 9.73805 14.7277 10.2825 14.5021C10.827 14.2766 11.4106 14.1605 12 14.1605C12.5893 14.1605 13.1729 14.2766 13.7174 14.5021C14.2619 14.7277 14.7566 15.0583 15.1733 15.4751C15.24 15.5418 15.2986 15.6084 15.3533 15.6751C15.4662 15.8111 15.6285 15.8968 15.8045 15.9131C15.9806 15.9295 16.1559 15.8753 16.292 15.7624L16.29 15.7598ZM12.9506 17.4804C12.6967 17.2379 12.3591 17.1025 12.008 17.1025C11.6568 17.1025 11.3192 17.2379 11.0653 17.4804C10.8788 17.6669 10.7518 17.9045 10.7003 18.1631C10.6488 18.4218 10.6752 18.6899 10.7761 18.9335C10.877 19.1772 11.0479 19.3855 11.2672 19.532C11.4864 19.6785 11.7442 19.7567 12.008 19.7567C12.2717 19.7567 12.5295 19.6785 12.7488 19.532C12.968 19.3855 13.1389 19.1772 13.2398 18.9335C13.3407 18.6899 13.3671 18.4218 13.3156 18.1631C13.2642 17.9045 13.1371 17.6669 12.9506 17.4804Z" fill="#1BA5B5"/>
</svg>
