<svg width="24" height="24" viewBox="0 0 24 24" fill="none" xmlns="http://www.w3.org/2000/svg">
<path d="M9.00773 6.4789V2.28896C9.00773 2.09148 8.84789 1.93164 8.65041 1.93164H1.78701C1.58953 1.93164 1.42969 2.09148 1.42969 2.28896C1.42969 2.48644 1.58953 2.64628 1.78701 2.64628H4.29754V6.4789C2.77869 6.65208 1.59096 8.03919 1.59096 9.72003V18.629C1.59096 20.4263 2.94925 21.8887 4.61841 21.8887H8.68567C10.3555 21.8887 11.7141 20.4263 11.7141 18.629V9.72003C11.7143 8.03943 10.5268 6.65255 9.00773 6.4789ZM8.29309 2.64628V6.45984H5.01218V2.64628H8.29309ZM2.3056 10.8861H8.00533V17.6659H2.3056V10.8861ZM10.9997 18.629C10.9997 20.0323 9.96178 21.174 8.68591 21.174H4.61841C3.34302 21.174 2.3056 20.0323 2.3056 18.629V18.3805H8.36265C8.56013 18.3805 8.71997 18.2204 8.71997 18.0232V10.5288C8.71997 10.3313 8.56013 10.1714 8.36265 10.1714H2.3056V9.72003C2.3056 8.31647 3.34302 7.17472 4.61841 7.17472H4.65248C4.65319 7.17472 4.65391 7.17496 4.65486 7.17496C4.65581 7.17496 4.65629 7.17472 4.65724 7.17472H8.64827C8.64898 7.17472 8.6497 7.17496 8.65065 7.17496C8.6516 7.17496 8.65208 7.17472 8.65303 7.17472H8.68614C9.96202 7.17472 10.9999 8.31647 10.9999 9.72003L10.9997 18.629Z" fill="#1BA5B5"/>
<path d="M22.7786 2.00435C22.7109 1.92812 22.6137 1.88477 22.5118 1.88477H14.2675C14.1655 1.88477 14.0683 1.92836 14.0007 2.00435C13.9328 2.08058 13.9008 2.18206 13.9125 2.2833L15.6486 17.219C15.6696 17.3994 15.8223 17.5351 16.0036 17.5351H16.0157V20.4275C16.0157 21.2589 16.5748 21.9352 17.2618 21.9352H19.4229C20.1096 21.9352 20.6683 21.2589 20.6683 20.4275V17.5351H20.7766C20.9582 17.5351 21.1106 17.3994 21.1316 17.219L21.6228 12.9915C21.6318 12.9693 21.6435 12.9488 21.648 12.9243C21.6566 12.8776 21.6554 12.8314 21.6464 12.7876L22.8667 2.2833C22.8784 2.18206 22.8465 2.08058 22.7786 2.00435ZM19.9536 20.4275C19.9536 20.8575 19.7104 21.2205 19.4229 21.2205H17.2618C16.9736 21.2205 16.7303 20.8575 16.7303 20.4275V17.5351H19.9536V20.4275ZM20.4584 16.8205H20.3548C20.3402 16.8186 20.3259 16.816 20.3109 16.816C20.2959 16.816 20.2816 16.8186 20.2671 16.8205H16.3218L14.6688 2.59917H22.1106L21.7924 5.33767C19.6785 5.42605 17.9848 7.16834 17.9848 9.30321C17.9848 11.0996 19.1858 12.6565 20.8869 13.1303L20.4584 16.8205ZM20.971 12.4071C19.6342 11.9836 18.6994 10.738 18.6994 9.30344C18.6994 7.59069 20.0284 6.18523 21.7088 6.05683L20.971 12.4071Z" fill="#1BA5B5"/>
</svg>
