<svg width="30" height="30" viewBox="0 0 30 30" fill="none" xmlns="http://www.w3.org/2000/svg">
<path d="M8.08818 5.06191L6.25068 6.92441C5.75483 7.41496 5.36118 7.99897 5.09253 8.64266C4.82388 9.28634 4.68555 9.97692 4.68555 10.6744C4.68555 11.3719 4.82388 12.0625 5.09253 12.7062C5.36118 13.3499 5.75483 13.9339 6.25068 14.4244L15.5882 23.7494C16.0787 24.2453 16.6627 24.6389 17.3064 24.9076C17.9501 25.1762 18.6407 25.3145 19.3382 25.3145C20.0357 25.3145 20.7263 25.1762 21.3699 24.9076C22.0136 24.6389 22.5976 24.2453 23.0882 23.7494L25.0007 21.9119C25.1312 21.7892 25.2352 21.641 25.3064 21.4766C25.3775 21.3121 25.4142 21.1348 25.4142 20.9557C25.4142 20.7765 25.3775 20.5992 25.3064 20.4348C25.2352 20.2703 25.1312 20.1221 25.0007 19.9994L22.2007 17.1869C21.9506 16.9411 21.6139 16.8034 21.2632 16.8034C20.9125 16.8034 20.5758 16.9411 20.3257 17.1869L19.3882 18.1244C19.1381 18.3702 18.8014 18.508 18.4507 18.508C18.1 18.508 17.7633 18.3702 17.5132 18.1244L11.8382 12.4994C11.5924 12.2493 11.4546 11.9126 11.4546 11.5619C11.4546 11.2112 11.5924 10.8745 11.8382 10.6244L12.7757 9.68691C13.0215 9.43679 13.1592 9.10012 13.1592 8.74941C13.1592 8.39871 13.0215 8.06204 12.7757 7.81191L10.0007 5.06191C9.87795 4.93137 9.72979 4.82734 9.56534 4.75623C9.40088 4.68512 9.2236 4.64844 9.04443 4.64844C8.86526 4.64844 8.68798 4.68512 8.52352 4.75623C8.35906 4.82734 8.21091 4.93137 8.08818 5.06191Z" stroke="#1BA5B5" stroke-width="1.875" stroke-linecap="round" stroke-linejoin="round"/>
</svg>
