<svg width="30" height="30" viewBox="0 0 30 30" fill="none" xmlns="http://www.w3.org/2000/svg">
<path d="M17.0127 24.5633C16.7804 24.8786 16.4772 25.1348 16.1276 25.3115C15.7781 25.4881 15.3919 25.5801 15.0002 25.5801C14.6086 25.5801 14.2224 25.4881 13.8729 25.3115C13.5233 25.1348 13.2201 24.8786 12.9877 24.5633C6.73775 16.1883 7.27525 12.1508 7.27525 12.1508C7.27525 10.102 8.08913 8.1371 9.53785 6.68838C10.9866 5.23966 12.9515 4.42578 15.0002 4.42578C17.049 4.42578 19.0139 5.23966 20.4626 6.68838C21.9114 8.1371 22.7252 10.102 22.7252 12.1508C22.7252 12.1508 23.2252 16.2508 17.0127 24.5633Z" stroke="#1BA5B5" stroke-width="1.875" stroke-linecap="round" stroke-linejoin="round"/>
<path d="M15 14.6367C16.3807 14.6367 17.5 13.5174 17.5 12.1367C17.5 10.756 16.3807 9.63672 15 9.63672C13.6193 9.63672 12.5 10.756 12.5 12.1367C12.5 13.5174 13.6193 14.6367 15 14.6367Z" stroke="#1BA5B5" stroke-width="1.875" stroke-linecap="round" stroke-linejoin="round"/>
</svg>
